<svg xmlns="http://www.w3.org/2000/svg" width="1024" height="1024" viewBox="0 0 1024 1024" version="1.1">
	<path d="M 497 36.615 C 462.284 43.091, 434.683 59.427, 415.379 84.925 C 409.429 92.783, 398 113.696, 398 116.724 C 398 118.506, 393.269 118.357, 373.943 115.965 C 327.499 110.217, 256.915 96.715, 196.121 81.949 C 184.913 79.227, 173.956 77, 171.773 77 C 163.736 77, 158.059 81.690, 154.485 91.283 C 152.986 95.305, 152.890 96.689, 153.878 99.988 C 155.463 105.277, 159.163 109.448, 163.981 111.376 C 175.643 116.042, 257.340 134.709, 297.500 141.884 C 315.681 145.132, 320.112 145.784, 363.750 151.630 L 392 155.415 392.006 158.958 C 392.018 166.415, 395.119 182.602, 398.431 192.501 C 403.657 208.118, 409.678 218.909, 421.103 233.136 L 423.220 235.771 417.587 243.255 C 400.679 265.719, 392.878 287.905, 392.623 314.247 C 392.555 321.258, 392.373 326.996, 392.217 326.997 C 392.061 326.999, 389.811 325.926, 387.217 324.613 C 362.050 311.879, 330.554 309.425, 304.013 318.131 C 273.804 328.040, 247.743 352.215, 235.008 382.140 C 229.494 395.097, 227.894 403.079, 227.297 420.605 C 226.817 434.688, 227.020 437.980, 228.915 446.831 C 238.547 491.815, 273.443 526.220, 318.207 534.864 L 326.914 536.545 323.310 541.022 C 316.814 549.096, 308.066 563.289, 304.901 570.892 C 284.051 620.977, 301.626 678.213, 347.207 708.664 C 383.596 732.974, 427.925 733.884, 465.836 711.099 L 473.700 706.372 475.909 719.834 C 480.252 746.301, 490.313 780.950, 500.183 803.435 C 502.372 808.421, 504.438 813.164, 504.775 813.976 C 505.112 814.787, 503.387 813.825, 500.944 811.837 C 494.480 806.580, 475.721 794.629, 458.500 784.796 C 417.913 761.621, 392.934 752.479, 367 751.308 C 353.051 750.679, 346.207 751.878, 336.429 756.666 C 329.864 759.881, 322.639 767.301, 319.779 773.767 C 314.928 784.732, 316.615 795.856, 325.143 809.146 C 330.593 817.638, 348.261 834.914, 360 843.230 C 381.722 858.618, 413.120 871.485, 444.631 877.911 C 472.132 883.519, 482.444 884.455, 517.040 884.478 L 548.580 884.500 555.540 892.905 C 566.189 905.766, 593.200 932.609, 605.606 942.661 C 626.088 959.256, 644.916 971.442, 667.636 982.808 C 690.742 994.367, 700.084 996.980, 711.144 994.974 C 723.010 992.822, 731.458 986.422, 737.090 975.317 C 740.298 968.993, 740.500 967.997, 740.500 958.547 C 740.500 949.355, 740.256 948.059, 737.631 943.323 C 736.053 940.475, 733.578 937.016, 732.131 935.635 C 730.684 934.254, 722.143 929.249, 713.151 924.512 C 684.423 909.380, 660.736 893.813, 643.538 878.761 L 639.575 875.294 651.639 869.143 C 687.283 850.971, 716.127 824.984, 739.529 789.956 C 753.972 768.340, 761.805 748.574, 762.728 731.423 C 763.338 720.067, 762.505 716.378, 757.889 710.005 C 744.776 691.904, 706.304 701.450, 666.183 732.761 C 633.905 757.951, 613.396 783.506, 600.384 814.750 C 598.266 819.837, 596.300 823.996, 596.016 823.991 C 595.732 823.986, 593.049 820.273, 590.054 815.741 C 572.281 788.847, 562.424 767.062, 554.878 738 C 552.216 727.748, 547.784 704.883, 548.349 704.318 C 548.469 704.198, 551.283 705.990, 554.603 708.300 C 562.718 713.946, 576.584 720.371, 587.241 723.425 C 647.843 740.790, 712.283 700.546, 725.630 637 C 728.090 625.284, 728.103 603.481, 725.656 592 C 722.032 574.995, 714.369 558.533, 703.342 544.059 C 700.404 540.203, 698 536.863, 698 536.637 C 698 536.412, 700.118 535.909, 702.706 535.521 C 710.552 534.345, 724.023 530.086, 732.578 526.077 C 781.742 503.038, 807.561 448.516, 793.938 396.506 C 783.891 358.146, 753.151 327.033, 714.806 316.414 C 702.201 312.924, 680.557 311.999, 667.790 314.407 C 657.417 316.363, 645.656 320.172, 637.779 324.127 C 634.632 325.707, 631.819 327, 631.529 327 C 631.238 327, 631 321.884, 631 315.631 C 631 289.183, 623.348 266.198, 607.332 244.538 L 600.982 235.951 605.952 229.466 C 623.706 206.303, 632.052 179.338, 630.683 149.565 C 630.038 135.517, 628.035 125.635, 623.090 112.085 C 610.247 76.893, 579.550 49.639, 541.191 39.368 C 533.071 37.194, 528.907 36.723, 515.500 36.461 C 506.700 36.289, 498.375 36.358, 497 36.615 M 498 83.516 C 482.869 86.608, 473.130 91.868, 461.945 102.992 C 454.301 110.593, 445.574 121.872, 446.557 122.880 C 446.760 123.089, 464.156 123.541, 485.214 123.883 C 521.310 124.471, 523.726 124.625, 527.447 126.574 C 539.737 133.011, 541.559 148.462, 531.069 157.288 C 525.449 162.017, 522.640 162.358, 495.022 161.666 C 480.985 161.314, 462.637 160.726, 454.250 160.358 L 439 159.689 439 162.615 C 439 166.884, 442.655 179.378, 445.648 185.339 C 448.885 191.787, 455.821 201.577, 459.865 205.406 L 462.935 208.311 471.217 205.115 C 496.670 195.292, 521.994 194.459, 545.914 202.656 C 550.086 204.086, 555.156 206.092, 557.180 207.113 L 560.860 208.969 566.180 203.075 C 576.266 191.899, 581.987 179.510, 584.162 164.132 C 586.192 149.777, 581.927 129.951, 573.865 116.264 C 569.559 108.954, 557.082 96.461, 549.809 92.179 C 534.857 83.375, 514.966 80.049, 498 83.516 M 494.113 374.479 C 483.896 376.800, 478.056 378.931, 469.257 383.548 C 445.118 396.213, 427.900 417.740, 420.851 444.067 C 417.654 456.008, 417.622 476.701, 420.781 489.301 C 429.853 525.493, 459.390 553.010, 496.751 560.078 C 505.971 561.822, 527.596 560.736, 537 558.056 C 568.623 549.044, 594.681 522.653, 603.210 491 C 605.178 483.694, 605.491 480.183, 605.438 466 C 605.382 451.019, 605.128 448.690, 602.679 440.703 C 593.051 409.305, 568.199 384.805, 537 375.954 C 527.091 373.143, 503.559 372.334, 494.113 374.479 M 497.026 398.562 C 488.618 400.385, 475.403 406.765, 468.016 412.568 C 457.595 420.756, 449.023 433.483, 444.828 447 C 442.872 453.301, 442.511 456.578, 442.567 467.500 C 442.625 478.696, 442.993 481.579, 445.220 488.278 C 452.392 509.856, 468.590 526.084, 490.500 533.645 C 497.591 536.092, 499.977 536.411, 511.500 536.453 C 522.394 536.492, 525.715 536.122, 532 534.168 C 562.156 524.794, 582 497.823, 582 466.213 C 582 440.283, 567.011 415.997, 544 404.643 C 538.775 402.065, 531.350 399.299, 527.500 398.495 C 518.811 396.682, 505.565 396.711, 497.026 398.562 M 511.582 660.742 C 511.252 661.783, 508.535 666.775, 505.544 671.835 L 500.107 681.036 501.061 692.768 C 506.276 756.891, 530.681 816.616, 573.891 871 C 584.153 883.915, 611.079 910.723, 624.500 921.387 C 651.610 942.927, 694.885 968.444, 706.533 969.757 C 710.554 970.210, 711.260 969.940, 714.473 966.727 C 717.441 963.759, 718 962.502, 718 958.796 C 718 953.029, 714.629 949.760, 702.388 943.660 C 654.712 919.899, 612.144 884.563, 582.334 844 C 563.308 818.112, 545.872 783.992, 537.110 755.500 C 530.800 734.982, 525.189 706.728, 523.429 686.604 C 522.834 679.810, 522.043 677.369, 517.760 669.104 C 511.881 657.761, 512.333 658.374, 511.582 660.742" stroke="none" fill="#B8860B" fill-rule="evenodd"/>
</svg>